<svg width="261" height="113" viewBox="0 0 261 113" fill="none" xmlns="http://www.w3.org/2000/svg">
<path d="M27.3752 28.3504C23.8168 30.3871 22.3714 35.2556 24.1431 39.3678C25.6603 42.8894 28.2672 45.6012 31.0869 48.1318C36.1145 52.6438 41.7694 56.4243 46.5608 61.2043C51.9953 66.6259 55.8764 72.9533 57.4969 80.5297C60.625 95.1545 50.9045 109.583 36.0799 112.024C26.269 113.639 17.5149 111.228 10.9693 103.529C6.54614 98.3266 5.58768 92.1659 8.66206 85.802C10.8153 81.3449 15.5531 79.1738 20.3927 80.1996C22.8741 80.7256 24.6876 82.9197 24.7103 85.4235C24.731 87.6949 23.0752 89.7817 20.7237 90.4477C18.3394 91.123 15.8901 90.1089 14.6719 87.9065C14.3741 87.368 14.1784 86.7734 13.9313 86.194C11.9872 87.5007 11.1763 89.4926 11.6387 91.7327C13.1442 99.0275 20.7197 104.145 28.1426 102.883C36.8139 101.408 42.1102 95.946 42.7331 87.181C43.1181 81.7629 40.5709 77.3947 36.3342 74.0366C32.4233 70.9367 27.8829 69.239 23.0343 68.2859C21.7875 68.0408 20.8569 67.7821 20.7906 66.1484C20.6082 61.6612 18.4987 60.2033 14.0272 61.2643C13.4385 61.404 12.8677 61.7882 12.2329 61.4325C12.6838 55.4069 11.1629 53.4456 2.31708 53.4464C5.20073 50.9726 7.09485 48.3407 6.54482 44.6844C5.97902 40.9231 3.28233 39.0977 0 37.8597C5.97254 29.8864 5.97254 29.8863 0.924719 22.2222C4.33259 22.3862 7.54165 22.2843 9.92785 19.7576C12.3638 17.1782 12.3517 14.1646 11.1067 10.8859C12.3297 10.8859 13.2843 10.8877 14.2389 10.8856C19.5756 10.8741 23.4708 7.57772 24.0603 2.30687C24.2444 0.661102 24.8648 0.392062 26.3159 0.532205C35.124 1.38291 40.6513 5.94782 42.8591 14.5643C43.943 18.7943 44.9717 23.0529 46.6255 27.1228C48.2459 31.11 50.5329 34.6237 53.6994 37.5778C55.4692 39.229 55.1713 40.7407 52.8867 41.6619C50.7664 42.517 48.7768 42.9664 46.7916 40.9298C44.2752 38.3483 40.7339 37.9904 37.3448 37.4865C30.5655 36.4787 29.0804 35.1316 27.3752 28.3504Z" fill="black"/>
<path d="M78.0992 105.009C79.6719 105.009 82.1382 104.257 85.498 102.752C86.1772 103.683 86.5346 104.508 86.5703 105.224C84.7474 106.3 82.9603 107.142 81.2088 107.751C79.4574 108.36 78.2064 108.665 77.4558 108.665C73.3096 108.665 70.1463 107.429 67.9659 104.956C65.7856 102.447 64.6954 98.9525 64.6954 94.4725C64.6954 89.9925 65.7498 86.4802 67.8587 83.9355C70.0033 81.355 73.2023 80.0648 77.4558 80.0648C80.7442 80.0648 83.2462 81.2475 84.9619 83.613C86.7133 85.9784 87.589 89.1503 87.589 93.1285C87.3031 93.6303 87.0707 93.9707 86.892 94.1499L69.628 93.8811C69.6637 97.501 70.2892 100.261 71.5045 102.16C72.7555 104.06 74.9538 105.009 78.0992 105.009ZM82.7101 90.8168C82.7101 88.4514 82.2811 86.6235 81.4233 85.3333C80.5655 84.0072 79.1357 83.3442 77.1341 83.3442C75.1325 83.3442 73.3453 83.7205 71.7726 84.4731C70.7003 86.6235 70.0212 88.8277 69.7352 91.0856C72.5589 91.0498 76.8839 90.9602 82.7101 90.8168Z" fill="black"/>
<path d="M113.47 90.4405L113.202 104.311C114.739 104.418 116.276 104.669 117.813 105.063L117.706 106.945C117.134 107.232 116.097 107.554 114.596 107.912C113.13 108.235 111.683 108.396 110.253 108.396C109.61 107.106 109.252 105.87 109.181 104.687C105.106 107.375 102.247 108.719 100.602 108.719C98.0646 108.719 96.0272 108.038 94.4903 106.676C92.9533 105.314 92.1848 103.415 92.1848 100.977C92.1848 95.3506 95.6162 92.4475 102.479 92.2683C106.482 92.1608 108.502 92.107 108.537 92.107L108.484 90.2792C108.412 87.8062 107.948 86.0322 107.09 84.957C106.232 83.8459 104.695 83.2904 102.479 83.2904C101.55 83.2904 100.549 83.5055 99.4765 83.9355L98.1897 89.3115C98.011 89.3474 97.7072 89.3653 97.2783 89.3653L95.08 89.204C94.5081 87.6629 94.2043 85.5304 94.1686 82.8066C94.8477 82.4482 96.4025 81.9106 98.8331 81.1938C101.264 80.4411 102.818 80.0648 103.498 80.0648C107.143 80.0648 109.717 80.8712 111.218 82.484C112.719 84.0968 113.47 86.749 113.47 90.4405ZM101.782 105.063C102.818 105.063 105.213 103.898 108.966 101.569L108.698 94.8488C106.268 95.0639 104.23 95.261 102.586 95.4402C100.942 95.6194 99.6194 96.1032 98.6186 96.8917C97.6178 97.6443 97.1174 98.845 97.1174 100.494C97.1174 103.54 98.6722 105.063 101.782 105.063Z" fill="black"/>
<path d="M130.308 86.4622L147.787 86.516C147.715 82.1435 147.608 77.8248 147.465 73.5599C146.143 73.309 144.552 72.8789 142.693 72.2696L142.854 70.388H156.258C156.866 71.5349 157.17 72.6101 157.17 73.6136C155.382 73.757 153.953 73.8287 152.88 73.8287L152.291 104.364L156.794 104.794C156.794 105.798 156.49 106.873 155.883 108.02H143.551L143.39 106.138C145.07 105.565 146.715 105.135 148.323 104.848L147.894 89.9029H130.201C130.13 96.3541 130.094 101.175 130.094 104.364L134.598 104.794C134.598 105.798 134.294 106.873 133.686 108.02H121.355L121.194 106.138C122.874 105.565 124.518 105.135 126.126 104.848C125.769 90.9422 125.483 80.5128 125.269 73.5599C123.946 73.309 122.356 72.8789 120.497 72.2696L120.658 70.388H134.061C134.669 71.5349 134.973 72.6101 134.973 73.6136C133.186 73.757 131.756 73.8287 130.684 73.8287C130.577 76.5525 130.451 80.7637 130.308 86.4622Z" fill="black"/>
<path d="M173.101 105.44C176.103 105.44 178.123 104.508 179.159 102.644C180.232 100.744 180.768 98.0565 180.768 94.58C180.768 89.0606 179.552 85.6021 177.122 84.2043C176.121 83.6309 174.709 83.3442 172.886 83.3442C171.099 83.3442 169.401 83.7205 167.793 84.4731C166.363 87.2328 165.648 90.4405 165.648 94.0962C165.648 97.6085 166.113 100.314 167.042 102.214C168.115 104.364 170.134 105.44 173.101 105.44ZM160.716 94.58C160.716 90.0283 161.752 86.4802 163.825 83.9355C165.898 81.355 169.097 80.0648 173.422 80.0648C177.747 80.0648 180.875 81.2475 182.805 83.613C184.735 85.9426 185.7 89.4011 185.7 93.9886C185.7 98.5762 184.664 102.178 182.591 104.794C180.553 107.411 177.444 108.719 173.262 108.719C169.08 108.719 165.934 107.5 163.825 105.063C161.752 102.626 160.716 99.1317 160.716 94.58Z" fill="black"/>
<path d="M206.025 84.5807C205.846 84.4015 205.453 84.3119 204.845 84.3119C204.238 84.3119 203.326 84.5269 202.111 84.957C200.932 85.387 199.859 85.8888 198.894 86.4622C198.68 94.4187 198.537 100.386 198.465 104.364L202.969 104.794C202.969 105.798 202.665 106.873 202.057 108.02H189.726L189.565 106.138C191.209 105.565 192.818 105.135 194.39 104.848C194.176 95.7448 193.997 89.0069 193.854 84.6344C191.888 84.5269 190.316 84.3119 189.136 83.9893L189.351 81.1938C191.245 80.6562 194.051 80.3874 197.768 80.3874C198.34 81.2834 198.698 82.4303 198.841 83.828C202.951 81.3192 205.399 80.0648 206.186 80.0648C206.972 80.0648 207.884 80.2261 208.92 80.5487C209.957 80.8354 210.725 81.1579 211.226 81.5163C211.226 85.1003 210.886 88.0213 210.207 90.2792C209.707 90.4226 209.117 90.4942 208.438 90.4942C207.794 90.4942 207.347 90.4763 207.097 90.4405L206.025 84.5807Z" fill="black"/>
<path d="M218.1 104.579C219.351 105.117 220.87 105.386 222.657 105.386C224.48 105.386 225.91 105.045 226.947 104.364C227.983 103.683 228.501 102.752 228.501 101.569C228.501 100.386 228.019 99.4005 227.054 98.612C226.089 97.8235 224.909 97.1246 223.515 96.5154C222.121 95.9061 220.727 95.261 219.333 94.58C217.939 93.899 216.76 93.0031 215.795 91.892C214.83 90.781 214.347 89.4907 214.347 88.0213C214.347 85.5483 215.169 83.613 216.813 82.2152C218.457 80.7816 220.727 80.0648 223.622 80.0648C226.553 80.0648 229.306 80.7279 231.879 82.0539C231.915 82.4123 231.933 83.38 231.933 84.957C231.933 86.4981 231.772 87.8242 231.45 88.9352C230.592 89.2219 229.574 89.3653 228.394 89.3653L226.625 83.8818C225.838 83.4875 224.766 83.2904 223.408 83.2904C222.085 83.2904 221.031 83.6488 220.245 84.3656C219.458 85.0466 219.065 85.9247 219.065 86.9999C219.065 88.0392 219.548 88.9531 220.513 89.7416C221.514 90.5301 222.711 91.2469 224.105 91.892C225.499 92.5013 226.893 93.1643 228.287 93.8811C229.681 94.5621 230.86 95.476 231.825 96.6229C232.826 97.7339 233.327 99.0242 233.327 100.494C233.327 103.074 232.326 105.099 230.324 106.568C228.358 108.002 225.928 108.719 223.033 108.719C221.46 108.719 219.78 108.468 217.993 107.966C216.206 107.429 214.704 106.748 213.489 105.923C213.489 103.522 213.704 101.39 214.133 99.5259C214.955 99.3826 216.063 99.3109 217.457 99.3109L218.1 104.579Z" fill="black"/>
<path d="M251.51 105.009C253.083 105.009 255.549 104.257 258.909 102.752C259.588 103.683 259.946 104.508 259.981 105.224C258.158 106.3 256.371 107.142 254.62 107.751C252.868 108.36 251.617 108.665 250.867 108.665C246.721 108.665 243.557 107.429 241.377 104.956C239.197 102.447 238.106 98.9525 238.106 94.4725C238.106 89.9925 239.161 86.4802 241.27 83.9355C243.414 81.355 246.613 80.0648 250.867 80.0648C254.155 80.0648 256.657 81.2475 258.373 83.613C260.124 85.9784 261 89.1503 261 93.1285C260.714 93.6303 260.482 93.9707 260.303 94.1499L243.039 93.8811C243.075 97.501 243.7 100.261 244.915 102.16C246.167 104.06 248.365 105.009 251.51 105.009ZM256.121 90.8168C256.121 88.4514 255.692 86.6235 254.834 85.3333C253.976 84.0072 252.547 83.3442 250.545 83.3442C248.543 83.3442 246.756 83.7205 245.184 84.4731C244.111 86.6235 243.432 88.8277 243.146 91.0856C245.97 91.0498 250.295 90.9602 256.121 90.8168Z" fill="black"/>
</svg>
