<svg width="32" height="32" viewBox="0 0 32 32" fill="none" xmlns="http://www.w3.org/2000/svg">
<path d="M32 16C32 24.8366 24.8366 32 16 32C7.16344 32 0 24.8366 0 16C0 7.16344 7.16344 0 16 0C24.8366 0 32 7.16344 32 16Z" fill="black"/>
<path d="M15.1271 9.21661C14.3306 9.67124 14.0071 10.7579 14.4037 11.6758C14.7432 12.4619 15.3267 13.0672 15.9578 13.6321C17.0831 14.6392 18.3487 15.4831 19.4211 16.5501C20.6375 17.7602 21.5062 19.1726 21.8688 20.8638C22.569 24.1282 20.3934 27.3488 17.0753 27.8937C14.8795 28.2543 12.9202 27.716 11.4551 25.9975C10.4651 24.8363 10.2506 23.4611 10.9387 22.0406C11.4207 21.0457 12.4811 20.5611 13.5642 20.7901C14.1196 20.9075 14.5255 21.3973 14.5306 21.9561C14.5352 22.4631 14.1646 22.9289 13.6383 23.0776C13.1047 23.2283 12.5565 23.002 12.2838 22.5104C12.2172 22.3902 12.1734 22.2575 12.1181 22.1281C11.683 22.4198 11.5015 22.8644 11.6049 23.3644C11.9419 24.9927 13.6374 26.1351 15.2988 25.8533C17.2396 25.524 18.425 24.3049 18.5644 22.3484C18.6506 21.139 18.0805 20.164 17.1322 19.4144C16.2569 18.7225 15.2407 18.3435 14.1555 18.1308C13.8764 18.0761 13.6682 18.0183 13.6533 17.6537C13.6125 16.652 13.1403 16.3266 12.1395 16.5635C12.0078 16.5946 11.88 16.6804 11.7379 16.601C11.8389 15.256 11.4985 14.8182 9.5186 14.8184C10.164 14.2662 10.588 13.6787 10.4648 12.8626C10.3382 12.023 9.73464 11.6156 9 11.3392C10.3368 9.55945 10.3368 9.55945 9.20697 7.84871C9.96971 7.88532 10.688 7.86256 11.222 7.29856C11.7672 6.72281 11.7645 6.05014 11.4859 5.31829C11.7596 5.31829 11.9733 5.31868 12.1869 5.31822C13.3814 5.31566 14.2532 4.57985 14.3851 3.40332C14.4263 3.03596 14.5652 2.97591 14.89 3.00719C16.8614 3.19708 18.0985 4.21603 18.5926 6.13936C18.8352 7.08354 19.0655 8.03412 19.4356 8.94258C19.7983 9.8326 20.3102 10.6169 21.0189 11.2763C21.415 11.6449 21.3483 11.9823 20.837 12.1879C20.3624 12.3788 19.9171 12.4791 19.4728 12.0245C18.9096 11.4483 18.117 11.3684 17.3584 11.2559C15.8411 11.031 15.5087 10.7303 15.1271 9.21661Z" fill="white"/>
</svg>
